# xmcd
# 
# Track frame offsets:
#     150
#     25666
#     51943
#     73372
#     89722
#     116938
#     145888
#     168377
#     202992
#     224925
#     244949
# 
# Disc length: 3584
# 
# Revision: 1
# Processed by: cddbd v1.5.2PL0 Copyright (c) Steve Scherf et al.
# Submitted via: fre:ac v1.0.17
# 
DISCID=b50dfe0b
DTITLE=Jeff Lang - No Point (Slowing Down Live in the USA)
DYEAR=2002
DGENRE=Blues
TTITLE0=Ravenswood
TTITLE1=I Still See You
TTITLE2=Trainwreck 49
TTITLE3=Big Feeling
TTITLE4=No Good Answers
TTITLE5=Can't Raise My Head
TTITLE6=Burn That Bridge
TTITLE7=61 Highway
TTITLE8=Too Easy to Kill
TTITLE9=Bateman's Bay
TTITLE10=Prepare Me Well
EXTD=
EXTT0=
EXTT1=
EXTT2=
EXTT3=
EXTT4=
EXTT5=
EXTT6=
EXTT7=
EXTT8=
EXTT9=
EXTT10=
PLAYORDER=
